<svg width="220" height="128" viewBox="0 0 220 128" fill="none" xmlns="http://www.w3.org/2000/svg">
  <rect width="220" height="128" rx="10" fill="#F3EEE3"/>
  <g stroke="#242321" stroke-linecap="round" stroke-linejoin="round">
    <path d="m111 24 50 24-50 24-52-24 52-24Z" stroke-width="2.2"/>
    <path d="M59 48v31l52 25 50-25V48" stroke-width="2"/>
    <path d="M111 24v80" stroke-width="1.6"/>
    <path d="M79 39 131 63M90 83l49-24" stroke-width="1" opacity=".42"/>
    <path d="M72 69c8 4 18 6 31 8" stroke-width="1" opacity=".3"/>
    <path d="M120 78c13-2 24-5 34-10" stroke-width="1" opacity=".3"/>
    <path d="M88 19c11-4 24-6 37-6 16 0 31 4 44 9" stroke-width="0.9" opacity=".3"/>
  </g>
  <g stroke="#8D867B" stroke-width="0.85" stroke-linecap="round" opacity=".46">
    <path d="M24 110c18-5 45-8 76-8"/>
    <path d="M133 109c21 1 42 4 61 8"/>
  </g>
</svg>
