<svg width="220" height="128" viewBox="0 0 220 128" fill="none" xmlns="http://www.w3.org/2000/svg">
  <rect width="220" height="128" rx="10" fill="#F3EEE3"/>
  <g stroke="#242321" stroke-linecap="round" stroke-linejoin="round">
    <rect x="42" y="24" width="136" height="80" rx="7" stroke-width="2.2"/>
    <path d="m53 88 31-28 22 18 18-12 31 22" stroke-width="2.1"/>
    <circle cx="86" cy="49" r="9" stroke-width="2"/>
    <path d="M60 34h42M143 34h17M143 38h17" stroke-width="0.9" opacity=".28"/>
    <path d="M55 92h108" stroke-width="1" opacity=".18"/>
    <path d="M53 86c6-4 12-6 18-6 8 0 13 3 20 8" stroke-width="1" opacity=".34"/>
  </g>
  <g stroke="#8D867B" stroke-width="0.85" stroke-linecap="round" opacity=".46">
    <path d="M16 18c15-3 36-5 54-5"/>
    <path d="M141 112c18 0 36 3 56 7"/>
  </g>
</svg>
