<svg width="800" height="520" viewBox="0 0 800 520" fill="none" xmlns="http://www.w3.org/2000/svg">
  <defs>
    <linearGradient id="bg" x1="74" y1="40" x2="726" y2="488" gradientUnits="userSpaceOnUse">
      <stop stop-color="#0D1F39"/>
      <stop offset="1" stop-color="#07111F"/>
    </linearGradient>
    <linearGradient id="slab" x1="164" y1="116" x2="670" y2="398" gradientUnits="userSpaceOnUse">
      <stop stop-color="#3C7AC9"/>
      <stop offset=".55" stop-color="#D7CBAA"/>
      <stop offset="1" stop-color="#1C506D"/>
    </linearGradient>
    <linearGradient id="edge" x1="204" y1="88" x2="654" y2="420" gradientUnits="userSpaceOnUse">
      <stop stop-color="#7DF0FF"/>
      <stop offset="1" stop-color="#4E8FFF"/>
    </linearGradient>
    <filter id="soft" x="96" y="78" width="596" height="382" filterUnits="userSpaceOnUse" color-interpolation-filters="sRGB">
      <feDropShadow dx="0" dy="22" stdDeviation="24" flood-color="#46D7FF" flood-opacity=".18"/>
    </filter>
  </defs>
  <rect width="800" height="520" rx="34" fill="url(#bg)"/>
  <rect x="18" y="18" width="764" height="484" rx="26" stroke="#8FE7FF" stroke-opacity=".2"/>
  <path d="M0 92H800M0 156H800M0 220H800M0 284H800M0 348H800M0 412H800" stroke="#8FD1FF" stroke-opacity=".04"/>
  <path d="M96 0V520M176 0V520M256 0V520M336 0V520M416 0V520M496 0V520M576 0V520M656 0V520" stroke="#8FD1FF" stroke-opacity=".04"/>
  <path d="M88 406C170 386 236 336 305 286C350 254 394 242 446 236C516 227 566 236 620 220C674 205 722 178 772 140" stroke="#163A5E" stroke-width="34" stroke-linecap="round"/>
  <g filter="url(#soft)">
    <path d="M180 120L538 92L650 190L524 394L194 416L108 274L180 120Z" fill="url(#slab)"/>
    <path d="M180 120L538 92L650 190L524 394L194 416L108 274L180 120Z" stroke="url(#edge)" stroke-opacity=".7" stroke-width="3"/>
    <path d="M180 120L538 92L650 190L524 394L194 416L108 274L180 120Z" fill="url(#bg)" fill-opacity=".22"/>
    <path d="M198 164C264 144 338 148 404 176C472 205 534 214 596 200" stroke="#BFF8FF" stroke-opacity=".24" stroke-width="3"/>
    <path d="M174 214C250 184 340 184 416 208C488 231 553 235 626 222" stroke="#BFF8FF" stroke-opacity=".18" stroke-width="3"/>
    <path d="M162 266C242 243 324 246 402 272C492 301 556 301 624 284" stroke="#BFF8FF" stroke-opacity=".16" stroke-width="3"/>
    <path d="M222 110L202 414" stroke="#FF736A" stroke-width="4"/>
    <path d="M396 100L396 404" stroke="#FF736A" stroke-width="4"/>
    <path d="M566 126L596 382" stroke="#FF736A" stroke-width="4"/>
    <circle cx="394" cy="244" r="11" fill="#FF7C71" stroke="#FFE4DE" stroke-width="3"/>
    <rect x="150" y="336" width="146" height="48" rx="24" fill="#153A62"/>
    <rect x="332" y="302" width="146" height="48" rx="24" fill="#4E90FF"/>
    <rect x="514" y="254" width="120" height="48" rx="24" fill="#153A62"/>
  </g>
  <rect x="526" y="66" width="204" height="84" rx="22" fill="#0E2038" fill-opacity=".8" stroke="#7FDFFF" stroke-opacity=".18"/>
  <path d="M552 96H694M552 116H666" stroke="#8FD1FF" stroke-opacity=".46" stroke-width="6" stroke-linecap="round"/>
</svg>
