<svg width="220" height="128" viewBox="0 0 220 128" fill="none" xmlns="http://www.w3.org/2000/svg">
  <rect width="220" height="128" rx="10" fill="#F3EEE3"/>
  <g stroke="#242321" stroke-linecap="round" stroke-linejoin="round">
    <path d="M34 22v80M34 102h154" stroke-width="2.2"/>
    <path d="M47 41c10-4 24-1 33 8 10 9 18 18 29 17 16-1 20-15 34-20 17-6 30 5 36 28" stroke-width="2.4"/>
    <path d="M47 52c12-5 21-4 31 3 12 7 18 19 31 20 13 2 24-8 33-13 15-8 28-5 39 7" stroke-width="1.3" opacity=".5"/>
    <path d="M58 36v66M86 36v66M114 36v66M142 36v66M170 36v66" stroke-width="0.7" opacity=".22"/>
    <path d="M34 88h154M34 74h154M34 60h154M34 46h154" stroke-width="0.7" opacity=".22"/>
    <path d="M121 89c12 2 25 1 39-6" stroke-width="1" opacity=".42"/>
  </g>
  <g stroke="#8D867B" stroke-width="0.85" stroke-linecap="round" opacity=".46">
    <path d="M20 17c15-5 38-7 54-7"/>
    <path d="M145 112c18 0 35 2 50 5"/>
  </g>
</svg>
