<svg width="800" height="520" viewBox="0 0 800 520" fill="none" xmlns="http://www.w3.org/2000/svg">
  <defs>
    <linearGradient id="bg" x1="56" y1="34" x2="744" y2="486" gradientUnits="userSpaceOnUse">
      <stop stop-color="#0D1F39"/>
      <stop offset="1" stop-color="#07111F"/>
    </linearGradient>
    <filter id="glow" x="94" y="84" width="610" height="366" filterUnits="userSpaceOnUse" color-interpolation-filters="sRGB">
      <feDropShadow dx="0" dy="18" stdDeviation="22" flood-color="#55DCFF" flood-opacity=".15"/>
    </filter>
  </defs>
  <rect width="800" height="520" rx="34" fill="url(#bg)"/>
  <rect x="18" y="18" width="764" height="484" rx="26" stroke="#8FE7FF" stroke-opacity=".2"/>
  <path d="M0 338H800" stroke="#183655" stroke-width="72"/>
  <path d="M0 388H800" stroke="#0C1B31" stroke-width="84"/>
  <path d="M64 344H738M64 390H738M64 436H738" stroke="#8FD1FF" stroke-opacity=".05"/>
  <g filter="url(#glow)">
    <rect x="126" y="230" width="170" height="92" rx="18" fill="#74D5FF"/>
    <rect x="320" y="188" width="214" height="134" rx="20" fill="#2A5C8A"/>
    <rect x="554" y="150" width="118" height="172" rx="20" fill="#173250"/>
    <path d="M622 84V292" stroke="#A4F4FF" stroke-width="10" stroke-linecap="round"/>
    <path d="M622 100H512" stroke="#A4F4FF" stroke-width="10" stroke-linecap="round"/>
    <path d="M528 100L488 156" stroke="#A4F4FF" stroke-width="8" stroke-linecap="round"/>
    <circle cx="482" cy="164" r="15" fill="#FFC962"/>
    <path d="M144 230L178 192H260L296 230" stroke="#EAF5FF" stroke-opacity=".64" stroke-width="6" stroke-linejoin="round"/>
    <path d="M360 188H494M360 226H480M360 264H444" stroke="#9DD8FF" stroke-opacity=".42" stroke-width="8" stroke-linecap="round"/>
    <rect x="112" y="354" width="164" height="50" rx="25" fill="#132B47"/>
    <rect x="304" y="354" width="164" height="50" rx="25" fill="#132B47"/>
    <rect x="496" y="354" width="164" height="50" rx="25" fill="#1E4E82"/>
    <rect x="520" y="370" width="116" height="18" rx="9" fill="#6CDBFF"/>
  </g>
  <rect x="92" y="84" width="204" height="74" rx="22" fill="#0E2038" fill-opacity=".82" stroke="#7FDFFF" stroke-opacity=".16"/>
  <path d="M118 112H236M118 130H214" stroke="#8FD1FF" stroke-opacity=".44" stroke-width="6" stroke-linecap="round"/>
</svg>
